<svg width="24" height="24" viewBox="0 0 24 24" fill="none" xmlns="http://www.w3.org/2000/svg">
<path d="M9 5.83333C9 5.21449 8.73661 4.621 8.26777 4.18342C7.79893 3.74583 7.16304 3.5 6.5 3.5V3.5C5.83696 3.5 5.20107 3.74583 4.73223 4.18342C4.26339 4.621 4 5.21449 4 5.83333V10.5" stroke="#191A23" stroke-width="1.5" stroke-linecap="round" stroke-linejoin="round"/>
<path d="M3 10.5H21M17.5 18.5L18 20.5M6.5 18.5L6 20.5M20 14.5V10.5H4V14.5C4 15.5609 4.42143 16.5783 5.17157 17.3284C5.92172 18.0786 6.93913 18.5 8 18.5H16C17.0609 18.5 18.0783 18.0786 18.8284 17.3284C19.5786 16.5783 20 15.5609 20 14.5Z" stroke="#191A23" stroke-width="1.5" stroke-linecap="round" stroke-linejoin="round"/>
</svg>
