<svg width="24" height="24" viewBox="0 0 24 24" fill="none" xmlns="http://www.w3.org/2000/svg">
<path d="M20.8889 18.5V16.3333M3.11111 18.5V16.3333M22 16.3333H2V13.0833C2 12.796 2.11706 12.5205 2.32544 12.3173C2.53381 12.1141 2.81643 12 3.11111 12H20.8889C21.1836 12 21.4662 12.1141 21.6746 12.3173C21.8829 12.5205 22 12.796 22 13.0833V16.3333ZM19.7778 6.58333C19.7778 6.29602 19.6607 6.02047 19.4523 5.8173C19.244 5.61414 18.9614 5.5 18.6667 5.5H5.33333C5.03865 5.5 4.75603 5.61414 4.54766 5.8173C4.33929 6.02047 4.22222 6.29602 4.22222 6.58333V12H19.7778V6.58333Z" stroke="#191A23" stroke-width="1.5" stroke-linecap="round" stroke-linejoin="round"/>
</svg>
