<svg width="33" height="33" viewBox="0 0 33 33" fill="none" xmlns="http://www.w3.org/2000/svg">
<path d="M14.7996 6.03336V8.5H12.8263C10.6797 8.5 9.59969 9.57997 9.59969 11.7266V24.5H6.19971C4.29304 24.5 3.33301 23.54 3.33301 21.6333V6.03336C3.33301 4.1267 4.29304 3.16666 6.19971 3.16666H11.933C13.8397 3.16666 14.7996 4.1267 14.7996 6.03336Z" fill="#191A23"/>
<path opacity="0.4" d="M23.8263 11.7266V26.6067C23.8263 28.7534 22.7596 29.8333 20.613 29.8333H12.8263C10.6796 29.8333 9.59961 28.7534 9.59961 26.6067V11.7266C9.59961 9.57998 10.6796 8.5 12.8263 8.5H20.613C22.7596 8.5 23.8263 9.57998 23.8263 11.7266Z" fill="#191A23"/>
<path d="M29.9998 6.03336V21.6333C29.9998 23.54 29.0398 24.5 27.1331 24.5H23.8265V11.7266C23.8265 9.57997 22.7599 8.5 20.6132 8.5H18.5332V6.03336C18.5332 4.1267 19.4932 3.16666 21.3998 3.16666H27.1331C29.0398 3.16666 29.9998 4.1267 29.9998 6.03336Z" fill="#191A23"/>
<path d="M19.3333 16.1667H14C13.4533 16.1667 13 15.7133 13 15.1667C13 14.62 13.4533 14.1667 14 14.1667H19.3333C19.88 14.1667 20.3333 14.62 20.3333 15.1667C20.3333 15.7133 19.88 16.1667 19.3333 16.1667Z" fill="#191A23"/>
<path d="M19.3333 20.1667H14C13.4533 20.1667 13 19.7133 13 19.1667C13 18.62 13.4533 18.1667 14 18.1667H19.3333C19.88 18.1667 20.3333 18.62 20.3333 19.1667C20.3333 19.7133 19.88 20.1667 19.3333 20.1667Z" fill="#191A23"/>
<path d="M17.6665 25.8333V29.8333H15.6665V25.8333C15.6665 25.2867 16.1198 24.8333 16.6665 24.8333C17.2132 24.8333 17.6665 25.2867 17.6665 25.8333Z" fill="#191A23"/>
</svg>
