<svg width="32" height="33" viewBox="0 0 32 33" fill="none" xmlns="http://www.w3.org/2000/svg">
<path opacity="0.6" d="M13.4798 5.83334C13.3732 6.23334 13.3332 6.67334 13.3332 7.16667V11.1667H6.6665V8.5C6.6665 7.03334 7.8665 5.83334 9.33317 5.83334H13.4798Z" fill="#191A23"/>
<path d="M13.3332 25.8333V11.1667H6.6665C3.99984 11.1667 2.6665 12.5 2.6665 15.1667V25.8333C2.6665 28.5 3.99984 29.8333 6.6665 29.8333H17.3332C14.6665 29.8333 13.3332 28.5 13.3332 25.8333ZM8.99984 23.1667C8.99984 23.7133 8.5465 24.1667 7.99984 24.1667C7.45317 24.1667 6.99984 23.7133 6.99984 23.1667V17.8333C6.99984 17.2867 7.45317 16.8333 7.99984 16.8333C8.5465 16.8333 8.99984 17.2867 8.99984 17.8333V23.1667Z" fill="#191A23"/>
<path opacity="0.4" d="M18.6668 29.8333H17.3335C14.6668 29.8333 13.3335 28.5 13.3335 25.8333V7.16666C13.3335 4.5 14.6668 3.16666 17.3335 3.16666H25.3335C28.0002 3.16666 29.3335 4.5 29.3335 7.16666V25.8333C29.3335 28.5 28.0002 29.8333 25.3335 29.8333H24.0002" fill="#191A23"/>
<path d="M23.9998 24.5V29.8333H18.6665V24.5C18.6665 23.7667 19.2665 23.1667 19.9998 23.1667H22.6665C23.3998 23.1667 23.9998 23.7667 23.9998 24.5Z" fill="#191A23"/>
<path d="M18.6665 18.8333C18.1198 18.8333 17.6665 18.38 17.6665 17.8333V11.1667C17.6665 10.62 18.1198 10.1667 18.6665 10.1667C19.2132 10.1667 19.6665 10.62 19.6665 11.1667V17.8333C19.6665 18.38 19.2132 18.8333 18.6665 18.8333Z" fill="#191A23"/>
<path d="M24 18.8333C23.4533 18.8333 23 18.38 23 17.8333V11.1667C23 10.62 23.4533 10.1667 24 10.1667C24.5467 10.1667 25 10.62 25 11.1667V17.8333C25 18.38 24.5467 18.8333 24 18.8333Z" fill="#191A23"/>
</svg>
