<svg width="33" height="33" viewBox="0 0 33 33" fill="none" xmlns="http://www.w3.org/2000/svg">
<path d="M29.6667 28.8333H3C2.45333 28.8333 2 29.2867 2 29.8333C2 30.38 2.45333 30.8333 3 30.8333H29.6667C30.2133 30.8333 30.6667 30.38 30.6667 29.8333C30.6667 29.2867 30.2133 28.8333 29.6667 28.8333Z" fill="#191A23"/>
<path opacity="0.4" d="M23.0002 3.16666H9.66683C5.66683 3.16666 4.3335 5.55333 4.3335 8.5V29.8333H28.3335V8.5C28.3335 5.55333 27.0002 3.16666 23.0002 3.16666Z" fill="#191A23"/>
<path d="M13.667 23.5H9.66699C9.12033 23.5 8.66699 23.0467 8.66699 22.5C8.66699 21.9533 9.12033 21.5 9.66699 21.5H13.667C14.2137 21.5 14.667 21.9533 14.667 22.5C14.667 23.0467 14.2137 23.5 13.667 23.5Z" fill="#191A23"/>
<path d="M23 23.5H19C18.4533 23.5 18 23.0467 18 22.5C18 21.9533 18.4533 21.5 19 21.5H23C23.5467 21.5 24 21.9533 24 22.5C24 23.0467 23.5467 23.5 23 23.5Z" fill="#191A23"/>
<path d="M13.667 17.5H9.66699C9.12033 17.5 8.66699 17.0467 8.66699 16.5C8.66699 15.9533 9.12033 15.5 9.66699 15.5H13.667C14.2137 15.5 14.667 15.9533 14.667 16.5C14.667 17.0467 14.2137 17.5 13.667 17.5Z" fill="#191A23"/>
<path d="M23 17.5H19C18.4533 17.5 18 17.0467 18 16.5C18 15.9533 18.4533 15.5 19 15.5H23C23.5467 15.5 24 15.9533 24 16.5C24 17.0467 23.5467 17.5 23 17.5Z" fill="#191A23"/>
<path d="M13.667 11.5H9.66699C9.12033 11.5 8.66699 11.0467 8.66699 10.5C8.66699 9.95333 9.12033 9.5 9.66699 9.5H13.667C14.2137 9.5 14.667 9.95333 14.667 10.5C14.667 11.0467 14.2137 11.5 13.667 11.5Z" fill="#191A23"/>
<path d="M23 11.5H19C18.4533 11.5 18 11.0467 18 10.5C18 9.95333 18.4533 9.5 19 9.5H23C23.5467 9.5 24 9.95333 24 10.5C24 11.0467 23.5467 11.5 23 11.5Z" fill="#191A23"/>
</svg>
