<svg width="13" height="13" viewBox="0 0 13 13" fill="none" xmlns="http://www.w3.org/2000/svg">
<path d="M11.9835 9.9815C11.9835 10.1795 11.9395 10.383 11.846 10.581C11.7525 10.779 11.6315 10.966 11.472 11.142C11.2025 11.439 10.9055 11.6535 10.57 11.791C10.24 11.9285 9.8825 12 9.4975 12C8.9365 12 8.337 11.868 7.7045 11.5985C7.072 11.329 6.4395 10.966 5.8125 10.5095C5.18 10.0475 4.5805 9.536 4.0085 8.9695C3.442 8.3975 2.9305 7.798 2.474 7.171C2.023 6.544 1.66 5.917 1.396 5.2955C1.132 4.6685 1 4.069 1 3.497C1 3.123 1.066 2.7655 1.198 2.4355C1.33 2.1 1.539 1.792 1.8305 1.517C2.1825 1.1705 2.5675 1 2.9745 1C3.1285 1 3.2825 1.033 3.42 1.099C3.563 1.165 3.6895 1.264 3.7885 1.407L5.0645 3.2055C5.1635 3.343 5.235 3.4695 5.2845 3.5905C5.334 3.706 5.3615 3.8215 5.3615 3.926C5.3615 4.058 5.323 4.19 5.246 4.3165C5.1745 4.443 5.07 4.575 4.938 4.707L4.52 5.1415C4.4595 5.202 4.432 5.2735 4.432 5.3615C4.432 5.4055 4.4375 5.444 4.4485 5.488C4.465 5.532 4.4815 5.565 4.4925 5.598C4.5915 5.7795 4.762 6.016 5.004 6.302C5.2515 6.588 5.5155 6.8795 5.8015 7.171C6.0985 7.4625 6.3845 7.732 6.676 7.9795C6.962 8.2215 7.1985 8.3865 7.3855 8.4855C7.413 8.4965 7.446 8.513 7.4845 8.5295C7.5285 8.546 7.5725 8.5515 7.622 8.5515C7.7155 8.5515 7.787 8.5185 7.8475 8.458L8.2655 8.0455C8.403 7.908 8.535 7.8035 8.6615 7.7375C8.788 7.6605 8.9145 7.622 9.052 7.622C9.1565 7.622 9.2665 7.644 9.3875 7.6935C9.5085 7.743 9.635 7.8145 9.7725 7.908L11.593 9.2005C11.736 9.2995 11.835 9.415 11.8955 9.5525C11.9505 9.69 11.9835 9.8275 11.9835 9.9815Z" stroke="white" stroke-miterlimit="10"/>
</svg>
