<svg width="48" height="48" viewBox="0 0 48 48" fill="none" xmlns="http://www.w3.org/2000/svg">
<path opacity="0.4" d="M19.98 35.96C28.8055 35.96 35.96 28.8055 35.96 19.98C35.96 11.1545 28.8055 4 19.98 4C11.1545 4 4 11.1545 4 19.98C4 28.8055 11.1545 35.96 19.98 35.96Z" fill="#191A23"/>
<path d="M43.9402 31.98C43.9402 38.58 38.5802 43.94 31.9802 43.94C27.9002 43.94 24.3202 41.9 22.1602 38.8C30.8802 37.82 37.8202 30.88 38.8002 22.16C41.9002 24.32 43.9402 27.9 43.9402 31.98Z" fill="#191A23"/>
<path d="M22.9 19.42L18.1 17.74C17.62 17.58 17.52 17.54 17.52 16.84C17.52 16.32 17.88 15.9 18.34 15.9H21.34C21.98 15.9 22.5 16.48 22.5 17.2C22.5 18.02 23.18 18.7 24 18.7C24.82 18.7 25.5 18.02 25.5 17.2C25.5 14.9 23.72 13.02 21.5 12.92V12.82C21.5 12 20.82 11.32 20 11.32C19.18 11.32 18.5 11.98 18.5 12.82V12.92H18.32C16.22 12.92 14.5 14.68 14.5 16.86C14.5 18.76 15.34 19.98 17.08 20.58L21.9 22.26C22.38 22.42 22.48 22.46 22.48 23.16C22.48 23.68 22.12 24.1 21.66 24.1H18.66C18.02 24.1 17.5 23.52 17.5 22.8C17.5 21.98 16.82 21.3 16 21.3C15.18 21.3 14.5 21.98 14.5 22.8C14.5 25.1 16.28 26.98 18.5 27.08V27.2C18.5 28.02 19.18 28.7 20 28.7C20.82 28.7 21.5 28.02 21.5 27.2V27.1H21.68C23.78 27.1 25.5 25.34 25.5 23.16C25.5 21.26 24.64 20.04 22.9 19.42Z" fill="#191A23"/>
</svg>
