<svg width="16" height="16" viewBox="0 0 16 16" fill="none" xmlns="http://www.w3.org/2000/svg">
<path fill-rule="evenodd" clip-rule="evenodd" d="M9.59977 1.59998C9.77632 1.59992 9.94793 1.65827 10.0879 1.76593C10.2278 1.87358 10.3282 2.02451 10.3734 2.19518L11.3166 5.75997L13.9998 7.30718C14.1214 7.37739 14.2224 7.47838 14.2926 7.59999C14.3628 7.7216 14.3997 7.85955 14.3997 7.99997C14.3997 8.1404 14.3628 8.27835 14.2926 8.39996C14.2224 8.52157 14.1214 8.62256 13.9998 8.69277L11.3166 10.2408L10.3726 13.8048C10.3273 13.9753 10.2269 14.126 10.0871 14.2336C9.94725 14.3411 9.77578 14.3994 9.59937 14.3994C9.42296 14.3994 9.25149 14.3411 9.11165 14.2336C8.97182 14.126 8.87145 13.9753 8.82617 13.8048L7.88297 10.24L5.19977 8.69277C5.07816 8.62256 4.97718 8.52157 4.90697 8.39996C4.83677 8.27835 4.7998 8.1404 4.7998 7.99997C4.7998 7.85955 4.83677 7.7216 4.90697 7.59999C4.97718 7.47838 5.07816 7.37739 5.19977 7.30718L7.88297 5.75917L8.82697 2.19518C8.87213 2.02464 8.9724 1.87381 9.11216 1.76617C9.25193 1.65852 9.42336 1.6001 9.59977 1.59998Z" fill="white"/>
<path d="M4.56578 9.83429C4.41575 9.68426 4.21227 9.59998 4.0001 9.59998C3.78792 9.59998 3.58444 9.68426 3.43441 9.83429C3.28438 9.98432 3.2001 10.1878 3.2001 10.4V11.2H2.4001C2.18792 11.2 1.98444 11.2843 1.83441 11.4343C1.68438 11.5843 1.6001 11.7878 1.6001 12C1.6001 12.2121 1.68438 12.4156 1.83441 12.5657C1.98444 12.7157 2.18792 12.8 2.4001 12.8H3.2001V13.6C3.2001 13.8121 3.28438 14.0156 3.43441 14.1657C3.58444 14.3157 3.78792 14.4 4.0001 14.4C4.21227 14.4 4.41575 14.3157 4.56578 14.1657C4.71581 14.0156 4.8001 13.8121 4.8001 13.6V12.8H5.6001C5.81227 12.8 6.01575 12.7157 6.16578 12.5657C6.31581 12.4156 6.4001 12.2121 6.4001 12C6.4001 11.7878 6.31581 11.5843 6.16578 11.4343C6.01575 11.2843 5.81227 11.2 5.6001 11.2H4.8001V10.4C4.8001 10.1878 4.71581 9.98432 4.56578 9.83429Z" fill="white"/>
<path d="M4.56578 1.83429C4.41575 1.68426 4.21227 1.59998 4.0001 1.59998C3.78792 1.59998 3.58444 1.68426 3.43441 1.83429C3.28438 1.98432 3.2001 2.1878 3.2001 2.39998V3.19998H2.4001C2.18792 3.19998 1.98444 3.28426 1.83441 3.43429C1.68438 3.58432 1.6001 3.7878 1.6001 3.99998C1.6001 4.21215 1.68438 4.41563 1.83441 4.56566C1.98444 4.71569 2.18792 4.79998 2.4001 4.79998H3.2001V5.59998C3.2001 5.81215 3.28438 6.01563 3.43441 6.16566C3.58444 6.31569 3.78792 6.39997 4.0001 6.39997C4.21227 6.39997 4.41575 6.31569 4.56578 6.16566C4.71581 6.01563 4.8001 5.81215 4.8001 5.59998V4.79998H5.6001C5.81227 4.79998 6.01575 4.71569 6.16578 4.56566C6.31581 4.41563 6.4001 4.21215 6.4001 3.99998C6.4001 3.7878 6.31581 3.58432 6.16578 3.43429C6.01575 3.28426 5.81227 3.19998 5.6001 3.19998H4.8001V2.39998C4.8001 2.1878 4.71581 1.98432 4.56578 1.83429Z" fill="white"/>
</svg>
