<svg width="167" height="50" viewBox="0 0 167 50" fill="none" xmlns="http://www.w3.org/2000/svg">
<path fill-rule="evenodd" clip-rule="evenodd" d="M3.37394 18.1475C2.50244 20.0882 2.50244 22.2838 2.50244 26.6751V27.6867C2.50244 37.0492 2.50244 41.7305 5.41102 44.6391C8.31959 47.5477 13.0009 47.5477 22.3634 47.5477H27.3287C36.6913 47.5477 41.3725 47.5477 44.2811 44.6391C47.1897 41.7305 47.1897 37.0492 47.1897 27.6867V26.6751C47.1897 22.2838 47.1897 20.0882 46.3182 18.1475C45.4467 16.2068 43.8057 14.7481 40.5236 11.8308L38.041 9.62399C31.7614 4.04214 28.6216 1.25122 24.8461 1.25122C21.0705 1.25122 17.9307 4.04214 11.6511 9.62399L9.16851 11.8308C5.88646 14.7481 4.24544 16.2068 3.37394 18.1475ZM12.2769 22.2511C11.7561 23.4359 11.7561 24.7699 11.7561 27.4379V27.7202C11.7561 33.5279 11.7561 36.4318 13.5603 38.236C15.3646 40.0403 18.2684 40.0403 24.0761 40.0403H25.6162C31.4239 40.0403 34.3278 40.0403 36.132 38.236C37.9362 36.4318 37.9362 33.5279 37.9362 27.7202V27.4379C37.9362 24.7699 37.9362 23.4359 37.4154 22.2511C36.8946 21.0664 35.9117 20.1644 33.946 18.3606L33.176 17.654C29.2215 14.0251 27.2442 12.2107 24.8462 12.2107C22.4481 12.2107 20.4709 14.0251 16.5164 17.654L15.7464 18.3606C13.7806 20.1644 12.7977 21.0664 12.2769 22.2511Z" fill="#191A23"/>
<mask id="mask0_811_1497" style="mask-type:alpha" maskUnits="userSpaceOnUse" x="2" y="1" width="46" height="47">
<path fill-rule="evenodd" clip-rule="evenodd" d="M3.37394 18.1475C2.50244 20.0882 2.50244 22.2838 2.50244 26.6751V27.6867C2.50244 37.0492 2.50244 41.7305 5.41102 44.6391C8.31959 47.5477 13.0009 47.5477 22.3634 47.5477H27.3287C36.6913 47.5477 41.3725 47.5477 44.2811 44.6391C47.1897 41.7305 47.1897 37.0492 47.1897 27.6867V26.6751C47.1897 22.2838 47.1897 20.0882 46.3182 18.1475C45.4467 16.2068 43.8057 14.7481 40.5236 11.8308L38.041 9.62399C31.7614 4.04214 28.6216 1.25122 24.8461 1.25122C21.0705 1.25122 17.9307 4.04214 11.6511 9.62399L9.16851 11.8308C5.88646 14.7481 4.24544 16.2068 3.37394 18.1475ZM12.2769 22.2511C11.7561 23.4359 11.7561 24.7699 11.7561 27.4379V27.7202C11.7561 33.5279 11.7561 36.4318 13.5603 38.236C15.3646 40.0403 18.2684 40.0403 24.0761 40.0403H25.6162C31.4239 40.0403 34.3278 40.0403 36.132 38.236C37.9362 36.4318 37.9362 33.5279 37.9362 27.7202V27.4379C37.9362 24.7699 37.9362 23.4359 37.4154 22.2511C36.8946 21.0664 35.9117 20.1644 33.946 18.3606L33.176 17.654C29.2215 14.0251 27.2442 12.2107 24.8462 12.2107C22.4481 12.2107 20.4709 14.0251 16.5164 17.654L15.7464 18.3606C13.7806 20.1644 12.7977 21.0664 12.2769 22.2511Z" fill="#B592FF"/>
</mask>
<g mask="url(#mask0_811_1497)">
<circle cx="36.9118" cy="13.1379" r="20.6457" fill="#B592FF"/>
<path d="M18.2249 26.0317C20.5329 26.0317 21.687 26.0317 22.6394 26.2604C25.6652 26.9868 28.0278 29.3494 28.7543 32.3753C28.9829 33.3277 28.9829 34.4817 28.9829 36.7898C28.9829 39.0978 28.9829 40.2519 28.7543 41.2043C28.0278 44.2302 25.6652 46.5927 22.6394 47.3192C21.687 47.5478 20.5329 47.5478 18.2249 47.5478L15.7422 47.5478C11.1076 47.5478 8.79024 47.5478 7.02003 46.6459C5.46291 45.8525 4.19693 44.5865 3.40354 43.0294C2.50157 41.2592 2.50157 38.9418 2.50158 34.3072L2.50158 26.0317L18.2249 26.0317Z" fill="#FDA5D6"/>
</g>
<path d="M62.2625 27.9703V33.2503H76.0764V36.2203H58.8091V16.7803H76.0464V19.7503H62.2625V25.1203H73.5539V27.9703H62.2625Z" fill="#191A23"/>
<path d="M76.974 31.3003H80.1272C80.2873 32.0403 80.6978 32.6503 81.3584 33.1303C82.0191 33.5903 82.91 33.8203 84.0311 33.8203C84.7718 33.8203 85.3424 33.7503 85.7428 33.6103C86.1632 33.4503 86.4535 33.2303 86.6137 32.9503C86.7739 32.6503 86.8539 32.3303 86.8539 31.9903C86.8539 31.5503 86.7238 31.2103 86.4635 30.9703C86.2233 30.7303 85.8529 30.5303 85.3524 30.3703C84.8719 30.2103 84.2713 30.0703 83.5506 29.9503C82.7899 29.7703 82.0491 29.5803 81.3284 29.3803C80.6077 29.1603 79.957 28.8803 79.3764 28.5403C78.7958 28.2003 78.3354 27.7803 77.995 27.2803C77.6547 26.7603 77.4845 26.1303 77.4845 25.3903C77.4845 24.7103 77.6447 24.1003 77.965 23.5603C78.2853 23.0003 78.7258 22.5303 79.2863 22.1503C79.8669 21.7703 80.5376 21.4803 81.2984 21.2803C82.0791 21.0603 82.92 20.9503 83.8209 20.9503C85.1422 20.9503 86.2433 21.1603 87.1242 21.5803C88.0051 22.0003 88.6658 22.5903 89.1062 23.3503C89.5667 24.1103 89.7969 24.9803 89.7969 25.9603H86.8239C86.6637 25.1803 86.3534 24.6103 85.893 24.2503C85.4325 23.8903 84.7318 23.7103 83.7909 23.7103C82.8699 23.7103 82.1692 23.8703 81.6888 24.1903C81.2083 24.5103 80.968 24.9403 80.968 25.4803C80.968 25.9203 81.1182 26.2703 81.4185 26.5303C81.7388 26.7703 82.1893 26.9803 82.7698 27.1603C83.3504 27.3203 84.0411 27.4903 84.8419 27.6703C85.5626 27.8503 86.2433 28.0503 86.884 28.2703C87.5446 28.4903 88.1252 28.7603 88.6257 29.0803C89.1462 29.3803 89.5566 29.7803 89.8569 30.2803C90.1773 30.7803 90.3374 31.4003 90.3374 32.1403C90.3374 33.0603 90.0872 33.8503 89.5867 34.5103C89.0862 35.1703 88.3654 35.6803 87.4245 36.0403C86.5036 36.3803 85.3925 36.5503 84.0912 36.5503C82.91 36.5503 81.899 36.4203 81.0581 36.1603C80.2373 35.9003 79.5466 35.5603 78.986 35.1403C78.4255 34.7203 77.995 34.2703 77.6947 33.7903C77.3944 33.3103 77.1842 32.8503 77.0641 32.4103C76.964 31.9703 76.934 31.6003 76.974 31.3003Z" fill="#191A23"/>
<path d="M90.2004 21.2803H100.861V24.0403H90.2004V21.2803ZM93.8341 17.2603H97.2275V36.2203H93.8341V17.2603Z" fill="#191A23"/>
<path d="M107.871 36.5503C106.489 36.5503 105.228 36.2203 104.087 35.5603C102.946 34.9003 102.035 33.9903 101.354 32.8303C100.693 31.6503 100.363 30.3003 100.363 28.7803C100.363 27.2203 100.703 25.8603 101.384 24.7003C102.065 23.5203 102.986 22.6003 104.147 21.9403C105.328 21.2803 106.649 20.9503 108.111 20.9503C109.732 20.9503 111.014 21.3003 111.955 22.0003C112.896 22.7003 113.566 23.6403 113.967 24.8203C114.387 26.0003 114.597 27.3203 114.597 28.7803C114.597 29.6203 114.477 30.4903 114.237 31.3903C113.997 32.2903 113.616 33.1303 113.096 33.9103C112.575 34.6903 111.885 35.3303 111.024 35.8303C110.163 36.3103 109.112 36.5503 107.871 36.5503ZM108.922 33.7903C110.043 33.7903 111.004 33.5703 111.805 33.1303C112.605 32.6903 113.206 32.1003 113.606 31.3603C114.027 30.6003 114.237 29.7403 114.237 28.7803C114.237 27.7203 114.027 26.8203 113.606 26.0803C113.186 25.3203 112.575 24.7403 111.774 24.3403C110.994 23.9403 110.043 23.7403 108.922 23.7403C107.3 23.7403 106.049 24.2103 105.168 25.1503C104.287 26.0703 103.847 27.2803 103.847 28.7803C103.847 29.7603 104.057 30.6303 104.477 31.3903C104.918 32.1303 105.518 32.7203 106.279 33.1603C107.04 33.5803 107.921 33.7903 108.922 33.7903ZM114.237 21.2803H117.63V36.2203H114.477C114.477 36.2203 114.457 36.0303 114.417 35.6503C114.377 35.2703 114.337 34.8003 114.297 34.2403C114.257 33.6803 114.237 33.1503 114.237 32.6503V21.2803Z" fill="#191A23"/>
<path d="M118.167 21.2803H128.828V24.0403H118.167V21.2803ZM121.801 17.2603H125.194V36.2203H121.801V17.2603Z" fill="#191A23"/>
<path d="M141.723 31.3003H144.996C144.836 32.3203 144.426 33.2303 143.765 34.0303C143.125 34.8103 142.264 35.4303 141.183 35.8903C140.102 36.3303 138.8 36.5503 137.279 36.5503C135.537 36.5503 133.995 36.2403 132.654 35.6203C131.313 34.9803 130.252 34.0803 129.471 32.9203C128.71 31.7603 128.33 30.3803 128.33 28.7803C128.33 27.2003 128.7 25.8203 129.441 24.6403C130.202 23.4603 131.243 22.5503 132.564 21.9103C133.885 21.2703 135.417 20.9503 137.159 20.9503C138.94 20.9503 140.432 21.2703 141.633 21.9103C142.854 22.5303 143.755 23.4703 144.336 24.7303C144.916 25.9703 145.157 27.5403 145.057 29.4403H131.753C131.853 30.2803 132.134 31.0303 132.594 31.6903C133.054 32.3503 133.675 32.8703 134.456 33.2503C135.237 33.6303 136.158 33.8203 137.219 33.8203C138.38 33.8203 139.351 33.5903 140.132 33.1303C140.932 32.6503 141.463 32.0403 141.723 31.3003ZM137.069 23.6803C135.687 23.6803 134.556 24.0103 133.675 24.6703C132.794 25.3303 132.224 26.1803 131.963 27.2203H141.663C141.563 26.1003 141.103 25.2303 140.282 24.6103C139.461 23.9903 138.39 23.6803 137.069 23.6803Z" fill="#191A23"/>
<path d="M146.224 15.2803H149.618V36.2203H146.224V15.2803Z" fill="#191A23"/>
<path d="M150.183 21.2803H153.787L159.883 35.6203L156.94 36.2203L150.183 21.2803ZM167 21.2803L157.33 42.2203H153.757L157.901 34.0303L163.366 21.2803H167Z" fill="#191A23"/>
</svg>
