<svg width="20" height="20" viewBox="0 0 20 20" fill="none" xmlns="http://www.w3.org/2000/svg">
<path d="M18.3332 18.9583H1.6665C1.32484 18.9583 1.0415 18.6749 1.0415 18.3333C1.0415 17.9916 1.32484 17.7083 1.6665 17.7083H18.3332C18.6748 17.7083 18.9582 17.9916 18.9582 18.3333C18.9582 18.6749 18.6748 18.9583 18.3332 18.9583Z" fill="#191A23"/>
<path opacity="0.4" d="M17.5002 8.31657V18.3333H2.4585L2.50016 8.30823C2.50016 7.79989 2.7335 7.3166 3.14183 6.99994L8.97516 2.4666C9.57516 1.9916 10.4252 1.9916 11.0252 2.4666L12.1418 3.33325L15.8335 6.19992L16.8585 6.99994C17.2668 7.3166 17.5002 7.7999 17.5002 8.31657Z" fill="#191A23"/>
<path d="M10.8332 14.1667H9.1665C8.47484 14.1667 7.9165 14.7251 7.9165 15.4167V18.3334H12.0832V15.4167C12.0832 14.7251 11.5248 14.1667 10.8332 14.1667Z" fill="#191A23"/>
<path d="M7.9165 11.4584H6.24984C5.7915 11.4584 5.4165 11.0834 5.4165 10.6251V9.37508C5.4165 8.91675 5.7915 8.54175 6.24984 8.54175H7.9165C8.37484 8.54175 8.74984 8.91675 8.74984 9.37508V10.6251C8.74984 11.0834 8.37484 11.4584 7.9165 11.4584Z" fill="#191A23"/>
<path d="M13.75 11.4584H12.0833C11.625 11.4584 11.25 11.0834 11.25 10.6251V9.37508C11.25 8.91675 11.625 8.54175 12.0833 8.54175H13.75C14.2083 8.54175 14.5833 8.91675 14.5833 9.37508V10.6251C14.5833 11.0834 14.2083 11.4584 13.75 11.4584Z" fill="#191A23"/>
<path d="M15.8333 6.19992L12.1416 3.33325H14.9833C15.4416 3.33325 15.8166 3.69991 15.8166 4.15824L15.8333 6.19992Z" fill="#191A23"/>
</svg>
