<svg width="13" height="13" viewBox="0 0 13 13" fill="none" xmlns="http://www.w3.org/2000/svg">
<path d="M4.00272 6.03072C4.00272 4.92521 4.89841 4.02879 6.0036 4.02879C7.10879 4.02879 8.00496 4.92521 8.00496 6.03072C8.00496 7.13623 7.10879 8.03266 6.0036 8.03266C4.89841 8.03266 4.00272 7.13623 4.00272 6.03072ZM2.92082 6.03072C2.92082 7.73384 4.30098 9.11439 6.0036 9.11439C7.70622 9.11439 9.08638 7.73384 9.08638 6.03072C9.08638 4.32761 7.70622 2.94706 6.0036 2.94706C4.30098 2.94706 2.92082 4.32761 2.92082 6.03072ZM8.48799 2.82479C8.48793 2.96732 8.53013 3.10666 8.60924 3.2252C8.68836 3.34374 8.80083 3.43615 8.93245 3.49075C9.06407 3.54535 9.20892 3.55968 9.34869 3.53193C9.48845 3.50418 9.61684 3.43559 9.71764 3.33485C9.81843 3.23411 9.8871 3.10573 9.91495 2.96595C9.9428 2.82617 9.9286 2.68127 9.87412 2.54957C9.81965 2.41786 9.72735 2.30528 9.60891 2.22605C9.49047 2.14681 9.35119 2.10449 9.20871 2.10444H9.20842C9.01743 2.10453 8.83428 2.18044 8.6992 2.3155C8.56412 2.45057 8.48815 2.63374 8.48799 2.82479V2.82479ZM3.57815 10.9189C2.99282 10.8923 2.67468 10.7947 2.46325 10.7123C2.18296 10.6032 1.98297 10.4732 1.7727 10.2631C1.56242 10.0531 1.43227 9.85324 1.32363 9.57286C1.24121 9.36147 1.14371 9.04314 1.1171 8.45765C1.088 7.82464 1.08219 7.63448 1.08219 6.03077C1.08219 4.42706 1.08848 4.23744 1.1171 3.6039C1.14376 3.0184 1.24198 2.70069 1.32363 2.48868C1.43275 2.20831 1.56271 2.00826 1.7727 1.79792C1.98268 1.58759 2.18248 1.4574 2.46325 1.34873C2.67458 1.26628 2.99282 1.16876 3.57815 1.14214C4.21097 1.11303 4.40107 1.10722 6.0036 1.10722C7.60613 1.10722 7.79642 1.11351 8.42978 1.14214C9.0151 1.16881 9.33272 1.26705 9.54467 1.34873C9.82496 1.4574 10.025 1.58788 10.2352 1.79792C10.4455 2.00797 10.5752 2.20831 10.6843 2.48868C10.7667 2.70007 10.8642 3.0184 10.8908 3.6039C10.9199 4.23744 10.9257 4.42706 10.9257 6.03077C10.9257 7.63448 10.9199 7.82411 10.8908 8.45765C10.8642 9.04314 10.7662 9.36138 10.6843 9.57286C10.5752 9.85324 10.4452 10.0533 10.2352 10.2631C10.0252 10.473 9.82496 10.6032 9.54467 10.7123C9.33334 10.7948 9.0151 10.8923 8.42978 10.9189C7.79695 10.948 7.60685 10.9538 6.0036 10.9538C4.40035 10.9538 4.21078 10.948 3.57815 10.9189V10.9189ZM3.52844 0.0617589C2.88932 0.0908728 2.45259 0.192243 2.07119 0.340695C1.67621 0.493999 1.34183 0.699669 1.00769 1.03337C0.673556 1.36708 0.468473 1.70208 0.315213 2.09718C0.166804 2.47893 0.0654633 2.91554 0.0363578 3.55485C0.00677206 4.19516 0 4.39987 0 6.03072C0 7.66158 0.00677206 7.86629 0.0363578 8.5066C0.0654633 9.14595 0.166804 9.58252 0.315213 9.96427C0.468473 10.3591 0.673604 10.6945 1.00769 11.0281C1.34178 11.3616 1.67621 11.567 2.07119 11.7208C2.45331 11.8692 2.88932 11.9706 3.52844 11.9997C4.1689 12.0288 4.37321 12.0361 6.0036 12.0361C7.63399 12.0361 7.83864 12.0293 8.47876 11.9997C9.11793 11.9706 9.55437 11.8692 9.93601 11.7208C10.3308 11.567 10.6654 11.3618 10.9995 11.0281C11.3336 10.6944 11.5383 10.3591 11.692 9.96427C11.8404 9.58252 11.9422 9.14591 11.9708 8.5066C11.9999 7.86581 12.0067 7.66158 12.0067 6.03072C12.0067 4.39987 11.9999 4.19516 11.9708 3.55485C11.9417 2.91549 11.8404 2.47869 11.692 2.09718C11.5383 1.70232 11.3331 1.36761 10.9995 1.03337C10.6659 0.699141 10.3308 0.493999 9.93649 0.340695C9.55437 0.192243 9.11788 0.0903924 8.47924 0.0617589C7.83912 0.0326451 7.63447 0.0253906 6.00408 0.0253906C4.37369 0.0253906 4.1689 0.0321646 3.52844 0.0617589Z" fill="white"/>
</svg>
