<svg width="48" height="48" viewBox="0 0 48 48" fill="none" xmlns="http://www.w3.org/2000/svg">
<path opacity="0.4" d="M21.4998 4.90001C22.8798 3.72001 25.1397 3.72001 26.5397 4.90001L29.6998 7.61999C30.2998 8.13999 31.4197 8.56005 32.2197 8.56005H35.6198C37.7398 8.56005 39.4797 10.3 39.4797 12.42V15.8199C39.4797 16.5999 39.8997 17.74 40.4197 18.34L43.1398 21.5C44.3198 22.88 44.3198 25.14 43.1398 26.54L40.4197 29.6999C39.8997 30.2999 39.4797 31.42 39.4797 32.22V35.62C39.4797 37.74 37.7398 39.48 35.6198 39.48H32.2197C31.4397 39.48 30.2998 39.9 29.6998 40.42L26.5397 43.14C25.1597 44.32 22.8998 44.32 21.4998 43.14L18.3398 40.42C17.7398 39.9 16.6198 39.48 15.8198 39.48H12.3597C10.2397 39.48 8.49976 37.74 8.49976 35.62V32.1999C8.49976 31.4199 8.07978 30.2999 7.57978 29.6999L4.87977 26.52C3.71977 25.14 3.71977 22.9 4.87977 21.52L7.57978 18.34C8.07978 17.74 8.49976 16.62 8.49976 15.84V12.42C8.49976 10.3 10.2397 8.56005 12.3597 8.56005H15.8198C16.5998 8.56005 17.7398 8.13999 18.3398 7.61999L21.4998 4.90001Z" fill="#191A23"/>
<path d="M33.1594 22.14C32.7794 21.6 32.1395 21.3 31.3795 21.3H27.4794C27.2194 21.3 26.9795 21.2 26.8195 21C26.6595 20.8 26.5794 20.54 26.6194 20.26L27.0994 17.14C27.2994 16.22 26.6795 15.1599 25.7595 14.8599C24.8995 14.5399 23.8794 14.9799 23.4794 15.5799L19.5994 21.3399V20.6199C19.5994 19.2199 18.9995 18.64 17.5195 18.64H16.5394C15.0594 18.64 14.4595 19.2199 14.4595 20.6199V30.18C14.4595 31.58 15.0594 32.16 16.5394 32.16H17.5195C18.9195 32.16 19.5195 31.6199 19.5795 30.3399L22.5195 32.5999C22.9195 32.9999 23.8195 33.2199 24.4595 33.2199H28.1594C29.4394 33.2199 30.7194 32.2599 30.9994 31.0799L33.3395 23.9599C33.5995 23.3199 33.5394 22.66 33.1594 22.14Z" fill="#191A23"/>
</svg>
