<svg width="20" height="20" viewBox="0 0 20 20" fill="none" xmlns="http://www.w3.org/2000/svg">
<path opacity="0.4" d="M17.1834 7.04158C16.3084 3.19158 12.9501 1.45825 10.0001 1.45825C10.0001 1.45825 10.0001 1.45825 9.99175 1.45825C7.05008 1.45825 3.68341 3.18325 2.80841 7.03325C1.83341 11.3332 4.46675 14.9749 6.85008 17.2666C7.73341 18.1166 8.86675 18.5416 10.0001 18.5416C11.1334 18.5416 12.2667 18.1166 13.1417 17.2666C15.5251 14.9749 18.1584 11.3416 17.1834 7.04158Z" fill="#191A23"/>
<path d="M10 11.2166C11.4497 11.2166 12.625 10.0413 12.625 8.59155C12.625 7.14181 11.4497 5.96655 10 5.96655C8.55025 5.96655 7.375 7.14181 7.375 8.59155C7.375 10.0413 8.55025 11.2166 10 11.2166Z" fill="#191A23"/>
</svg>
