<svg width="134" height="40" viewBox="0 0 134 40" fill="none" xmlns="http://www.w3.org/2000/svg">
<path fill-rule="evenodd" clip-rule="evenodd" d="M2.6965 14.5035C2 16.0545 2 17.8092 2 21.3187V22.1271C2 29.6097 2 33.3509 4.32453 35.6755C6.64905 38 10.3903 38 17.8729 38H21.8411C29.3236 38 33.0649 38 35.3894 35.6755C37.7139 33.3509 37.7139 29.6097 37.7139 22.1272V21.3187C37.7139 17.8092 37.7139 16.0545 37.0174 14.5035C36.3209 12.9525 35.0094 11.7867 32.3864 9.45514L30.4023 7.69149C25.3837 3.2305 22.8744 1 19.857 1C16.8395 1 14.3302 3.2305 9.31161 7.69149L7.32751 9.45514C4.7045 11.7867 3.393 12.9525 2.6965 14.5035ZM9.81173 17.7831C9.39551 18.7299 9.39551 19.7961 9.39551 21.9283V22.154C9.39551 26.7955 9.39551 29.1162 10.8374 30.5582C12.2794 32.0001 14.6001 32.0001 19.2416 32.0001H20.4724C25.1139 32.0001 27.4347 32.0001 28.8766 30.5582C30.3186 29.1162 30.3186 26.7955 30.3186 22.154V21.9283C30.3186 19.7961 30.3186 18.7299 29.9024 17.7831C29.4861 16.8362 28.7006 16.1154 27.1296 14.6737L26.5142 14.109C23.3538 11.2089 21.7736 9.75879 19.857 9.75879C17.9405 9.75879 16.3603 11.2089 13.1999 14.109L12.5845 14.6737C11.0135 16.1154 10.2279 16.8362 9.81173 17.7831Z" fill="#191A23"/>
<mask id="mask0_637_1323" style="mask-type:alpha" maskUnits="userSpaceOnUse" x="2" y="1" width="36" height="37">
<path fill-rule="evenodd" clip-rule="evenodd" d="M2.6965 14.5035C2 16.0545 2 17.8092 2 21.3187V22.1271C2 29.6097 2 33.3509 4.32453 35.6755C6.64905 38 10.3903 38 17.8729 38H21.8411C29.3236 38 33.0649 38 35.3894 35.6755C37.7139 33.3509 37.7139 29.6097 37.7139 22.1272V21.3187C37.7139 17.8092 37.7139 16.0545 37.0174 14.5035C36.3209 12.9525 35.0094 11.7867 32.3864 9.45514L30.4023 7.69149C25.3837 3.2305 22.8744 1 19.857 1C16.8395 1 14.3302 3.2305 9.31161 7.69149L7.32751 9.45514C4.7045 11.7867 3.393 12.9525 2.6965 14.5035ZM9.81173 17.7831C9.39551 18.7299 9.39551 19.7961 9.39551 21.9283V22.154C9.39551 26.7955 9.39551 29.1162 10.8374 30.5582C12.2794 32.0001 14.6001 32.0001 19.2416 32.0001H20.4724C25.1139 32.0001 27.4347 32.0001 28.8766 30.5582C30.3186 29.1162 30.3186 26.7955 30.3186 22.154V21.9283C30.3186 19.7961 30.3186 18.7299 29.9024 17.7831C29.4861 16.8362 28.7006 16.1154 27.1296 14.6737L26.5142 14.109C23.3538 11.2089 21.7736 9.75879 19.857 9.75879C17.9405 9.75879 16.3603 11.2089 13.1999 14.109L12.5845 14.6737C11.0135 16.1154 10.2279 16.8362 9.81173 17.7831Z" fill="#B592FF"/>
</mask>
<g mask="url(#mask0_637_1323)">
<circle cx="29.5" cy="10.5" r="16.5" fill="#B592FF"/>
<path d="M14.5653 20.8044C16.4099 20.8044 17.3322 20.8044 18.0933 20.9872C20.5116 21.5678 22.3998 23.4559 22.9803 25.8742C23.1631 26.6354 23.1631 27.5576 23.1631 29.4022C23.1631 31.2468 23.1631 32.1691 22.9803 32.9303C22.3998 35.3486 20.5116 37.2367 18.0933 37.8173C17.3322 38 16.4099 38 14.5653 38L12.5812 38C8.87716 38 7.02515 38 5.61041 37.2792C4.36596 36.6451 3.3542 35.6334 2.72012 34.3889C1.99927 32.9742 1.99927 31.1222 1.99927 27.4181L1.99927 20.8044L14.5653 20.8044Z" fill="#FDA5D6"/>
</g>
<path d="M49.76 22.3761V26.6001H60.8V28.9761H47V13.4241H60.776V15.8001H49.76V20.0961H58.784V22.3761H49.76Z" fill="#191A23"/>
<path d="M61.5174 25.0401H64.0374C64.1654 25.6321 64.4934 26.1201 65.0214 26.5041C65.5494 26.8721 66.2614 27.0561 67.1574 27.0561C67.7494 27.0561 68.2054 27.0001 68.5254 26.8881C68.8614 26.7601 69.0934 26.5841 69.2214 26.3601C69.3494 26.1201 69.4134 25.8641 69.4134 25.5921C69.4134 25.2401 69.3094 24.9681 69.1014 24.7761C68.9094 24.5841 68.6134 24.4241 68.2134 24.2961C67.8294 24.1681 67.3494 24.0561 66.7734 23.9601C66.1654 23.8161 65.5734 23.6641 64.9974 23.5041C64.4214 23.3281 63.9014 23.1041 63.4374 22.8321C62.9734 22.5601 62.6054 22.2241 62.3334 21.8241C62.0614 21.4081 61.9254 20.9041 61.9254 20.3121C61.9254 19.7681 62.0534 19.2801 62.3094 18.8481C62.5654 18.4001 62.9174 18.0241 63.3654 17.7201C63.8294 17.4161 64.3654 17.1841 64.9734 17.0241C65.5974 16.8481 66.2694 16.7601 66.9894 16.7601C68.0454 16.7601 68.9254 16.9281 69.6294 17.2641C70.3334 17.6001 70.8614 18.0721 71.2134 18.6801C71.5814 19.2881 71.7654 19.9841 71.7654 20.7681H69.3894C69.2614 20.1441 69.0134 19.6881 68.6454 19.4001C68.2774 19.1121 67.7174 18.9681 66.9654 18.9681C66.2294 18.9681 65.6694 19.0961 65.2854 19.3521C64.9014 19.6081 64.7094 19.9521 64.7094 20.3841C64.7094 20.7361 64.8294 21.0161 65.0694 21.2241C65.3254 21.4161 65.6854 21.5841 66.1494 21.7281C66.6134 21.8561 67.1654 21.9921 67.8054 22.1361C68.3814 22.2801 68.9254 22.4401 69.4374 22.6161C69.9654 22.7921 70.4294 23.0081 70.8294 23.2641C71.2454 23.5041 71.5734 23.8241 71.8134 24.2241C72.0694 24.6241 72.1974 25.1201 72.1974 25.7121C72.1974 26.4481 71.9974 27.0801 71.5974 27.6081C71.1974 28.1361 70.6214 28.5441 69.8694 28.8321C69.1334 29.1041 68.2454 29.2401 67.2054 29.2401C66.2614 29.2401 65.4534 29.1361 64.7814 28.9281C64.1254 28.7201 63.5734 28.4481 63.1254 28.1121C62.6774 27.7761 62.3334 27.4161 62.0934 27.0321C61.8534 26.6481 61.6854 26.2801 61.5894 25.9281C61.5094 25.5761 61.4854 25.2801 61.5174 25.0401Z" fill="#191A23"/>
<path d="M72.0879 17.0241H80.6079V19.2321H72.0879V17.0241ZM74.9919 13.8081H77.7039V28.9761H74.9919V13.8081Z" fill="#191A23"/>
<path d="M86.2098 29.2401C85.1058 29.2401 84.0978 28.9761 83.1858 28.4481C82.2738 27.9201 81.5458 27.1921 81.0018 26.2641C80.4738 25.3201 80.2098 24.2401 80.2098 23.0241C80.2098 21.7761 80.4818 20.6881 81.0258 19.7601C81.5698 18.8161 82.3058 18.0801 83.2338 17.5521C84.1778 17.0241 85.2338 16.7601 86.4018 16.7601C87.6978 16.7601 88.7218 17.0401 89.4738 17.6001C90.2258 18.1601 90.7618 18.9121 91.0818 19.8561C91.4178 20.8001 91.5858 21.8561 91.5858 23.0241C91.5858 23.6961 91.4898 24.3921 91.2978 25.1121C91.1058 25.8321 90.8018 26.5041 90.3858 27.1281C89.9698 27.7521 89.4178 28.2641 88.7298 28.6641C88.0418 29.0481 87.2018 29.2401 86.2098 29.2401ZM87.0498 27.0321C87.9458 27.0321 88.7138 26.8561 89.3538 26.5041C89.9938 26.1521 90.4738 25.6801 90.7938 25.0881C91.1298 24.4801 91.2978 23.7921 91.2978 23.0241C91.2978 22.1761 91.1298 21.4561 90.7938 20.8641C90.4578 20.2561 89.9698 19.7921 89.3298 19.4721C88.7058 19.1521 87.9458 18.9921 87.0498 18.9921C85.7538 18.9921 84.7538 19.3681 84.0498 20.1201C83.3458 20.8561 82.9938 21.8241 82.9938 23.0241C82.9938 23.8081 83.1618 24.5041 83.4978 25.1121C83.8498 25.7041 84.3298 26.1761 84.9378 26.5281C85.5458 26.8641 86.2498 27.0321 87.0498 27.0321ZM91.2978 17.0241H94.0098V28.9761H91.4898C91.4898 28.9761 91.4738 28.8241 91.4418 28.5201C91.4098 28.2161 91.3778 27.8401 91.3458 27.3921C91.3138 26.9441 91.2978 26.5201 91.2978 26.1201V17.0241Z" fill="#191A23"/>
<path d="M94.4388 17.0241H102.959V19.2321H94.4388V17.0241ZM97.3428 13.8081H100.055V28.9761H97.3428V13.8081Z" fill="#191A23"/>
<path d="M113.265 25.0401H115.881C115.753 25.8561 115.425 26.5841 114.897 27.2241C114.385 27.8481 113.697 28.3441 112.833 28.7121C111.969 29.0641 110.929 29.2401 109.713 29.2401C108.321 29.2401 107.089 28.9921 106.017 28.4961C104.945 27.9841 104.097 27.2641 103.473 26.3361C102.865 25.4081 102.561 24.3041 102.561 23.0241C102.561 21.7601 102.857 20.6561 103.449 19.7121C104.057 18.7681 104.889 18.0401 105.945 17.5281C107.001 17.0161 108.225 16.7601 109.617 16.7601C111.041 16.7601 112.233 17.0161 113.193 17.5281C114.169 18.0241 114.889 18.7761 115.353 19.7841C115.817 20.7761 116.009 22.0321 115.929 23.5521H105.297C105.377 24.2241 105.601 24.8241 105.969 25.3521C106.337 25.8801 106.833 26.2961 107.457 26.6001C108.081 26.9041 108.817 27.0561 109.665 27.0561C110.593 27.0561 111.369 26.8721 111.993 26.5041C112.633 26.1201 113.057 25.6321 113.265 25.0401ZM109.545 18.9441C108.441 18.9441 107.537 19.2081 106.833 19.7361C106.129 20.2641 105.673 20.9441 105.465 21.7761H113.217C113.137 20.8801 112.769 20.1841 112.113 19.6881C111.457 19.1921 110.601 18.9441 109.545 18.9441Z" fill="#191A23"/>
<path d="M116.862 12.2241H119.574V28.9761H116.862V12.2241Z" fill="#191A23"/>
<path d="M120.026 17.0241H122.906L127.778 28.4961L125.426 28.9761L120.026 17.0241ZM133.466 17.0241L125.738 33.7761H122.882L126.194 27.2241L130.562 17.0241H133.466Z" fill="#191A23"/>
</svg>
