<svg width="40" height="40" viewBox="0 0 40 40" fill="none" xmlns="http://www.w3.org/2000/svg">
<path fill-rule="evenodd" clip-rule="evenodd" d="M2.6965 14.5035C2 16.0545 2 17.8092 2 21.3187V22.1271C2 29.6097 2 33.3509 4.32453 35.6755C6.64905 38 10.3903 38 17.8729 38H21.8411C29.3236 38 33.0649 38 35.3894 35.6755C37.7139 33.3509 37.7139 29.6097 37.7139 22.1272V21.3187C37.7139 17.8092 37.7139 16.0545 37.0174 14.5035C36.3209 12.9525 35.0094 11.7867 32.3864 9.45514L30.4023 7.69149C25.3837 3.2305 22.8744 1 19.857 1C16.8395 1 14.3302 3.2305 9.31161 7.69149L7.32751 9.45514C4.7045 11.7867 3.393 12.9525 2.6965 14.5035ZM9.81173 17.7831C9.39551 18.7299 9.39551 19.7961 9.39551 21.9283V22.154C9.39551 26.7955 9.39551 29.1162 10.8374 30.5582C12.2794 32.0001 14.6001 32.0001 19.2416 32.0001H20.4724C25.1139 32.0001 27.4347 32.0001 28.8766 30.5582C30.3186 29.1162 30.3186 26.7955 30.3186 22.154V21.9283C30.3186 19.7961 30.3186 18.7299 29.9024 17.7831C29.4861 16.8362 28.7006 16.1154 27.1296 14.6737L26.5142 14.109C23.3538 11.2089 21.7736 9.75879 19.857 9.75879C17.9405 9.75879 16.3603 11.2089 13.1999 14.109L12.5845 14.6737C11.0135 16.1154 10.2279 16.8362 9.81173 17.7831Z" fill="#191A23"/>
<mask id="mask0_648_1324" style="mask-type:alpha" maskUnits="userSpaceOnUse" x="2" y="1" width="36" height="37">
<path fill-rule="evenodd" clip-rule="evenodd" d="M2.6965 14.5035C2 16.0545 2 17.8092 2 21.3187V22.1271C2 29.6097 2 33.3509 4.32453 35.6755C6.64905 38 10.3903 38 17.8729 38H21.8411C29.3236 38 33.0649 38 35.3894 35.6755C37.7139 33.3509 37.7139 29.6097 37.7139 22.1272V21.3187C37.7139 17.8092 37.7139 16.0545 37.0174 14.5035C36.3209 12.9525 35.0094 11.7867 32.3864 9.45514L30.4023 7.69149C25.3837 3.2305 22.8744 1 19.857 1C16.8395 1 14.3302 3.2305 9.31161 7.69149L7.32751 9.45514C4.7045 11.7867 3.393 12.9525 2.6965 14.5035ZM9.81173 17.7831C9.39551 18.7299 9.39551 19.7961 9.39551 21.9283V22.154C9.39551 26.7955 9.39551 29.1162 10.8374 30.5582C12.2794 32.0001 14.6001 32.0001 19.2416 32.0001H20.4724C25.1139 32.0001 27.4347 32.0001 28.8766 30.5582C30.3186 29.1162 30.3186 26.7955 30.3186 22.154V21.9283C30.3186 19.7961 30.3186 18.7299 29.9024 17.7831C29.4861 16.8362 28.7006 16.1154 27.1296 14.6737L26.5142 14.109C23.3538 11.2089 21.7736 9.75879 19.857 9.75879C17.9405 9.75879 16.3603 11.2089 13.1999 14.109L12.5845 14.6737C11.0135 16.1154 10.2279 16.8362 9.81173 17.7831Z" fill="#B592FF"/>
</mask>
<g mask="url(#mask0_648_1324)">
<circle cx="29.5" cy="10.5" r="16.5" fill="#B592FF"/>
<path d="M14.5653 20.8044C16.4099 20.8044 17.3322 20.8044 18.0933 20.9872C20.5116 21.5678 22.3998 23.4559 22.9803 25.8742C23.1631 26.6354 23.1631 27.5576 23.1631 29.4022C23.1631 31.2468 23.1631 32.1691 22.9803 32.9303C22.3998 35.3486 20.5116 37.2367 18.0933 37.8173C17.3322 38 16.4099 38 14.5653 38L12.5812 38C8.87716 38 7.02515 38 5.61041 37.2792C4.36596 36.6451 3.3542 35.6334 2.72012 34.3889C1.99927 32.9742 1.99927 31.1222 1.99927 27.4181L1.99927 20.8044L14.5653 20.8044Z" fill="#FDA5D6"/>
</g>
</svg>
