<svg width="48" height="48" viewBox="0 0 48 48" fill="none" xmlns="http://www.w3.org/2000/svg">
<path opacity="0.4" d="M35.0606 15.54C34.9206 15.52 34.7806 15.52 34.6406 15.54C31.5406 15.44 29.0806 12.9 29.0806 9.78C29.0806 6.6 31.6606 4 34.8606 4C38.0406 4 40.6406 6.58 40.6406 9.78C40.6206 12.9 38.1606 15.44 35.0606 15.54Z" fill="#191A23"/>
<path opacity="0.4" d="M41.5807 29.4C39.3407 30.9 36.2007 31.46 33.3007 31.08C34.0607 29.44 34.4607 27.62 34.4807 25.7C34.4807 23.7 34.0407 21.8 33.2007 20.14C36.1607 19.74 39.3007 20.3 41.5607 21.8C44.7207 23.88 44.7207 27.3 41.5807 29.4Z" fill="#191A23"/>
<path opacity="0.4" d="M12.8803 15.54C13.0203 15.52 13.1603 15.52 13.3003 15.54C16.4003 15.44 18.8603 12.9 18.8603 9.78C18.8603 6.6 16.2803 4 13.0803 4C9.90029 4 7.30029 6.58 7.30029 9.78C7.32029 12.9 9.78029 15.44 12.8803 15.54Z" fill="#191A23"/>
<path opacity="0.4" d="M13.1007 25.7C13.1007 27.64 13.5207 29.48 14.2807 31.14C11.4607 31.44 8.52072 30.84 6.36072 29.42C3.20072 27.32 3.20072 23.8999 6.36072 21.7999C8.50072 20.3599 11.5207 19.78 14.3607 20.1C13.5407 21.78 13.1007 23.68 13.1007 25.7Z" fill="#191A23"/>
<path d="M24.2406 31.74C24.0806 31.72 23.9006 31.72 23.7206 31.74C20.0406 31.62 17.1006 28.6 17.1006 24.88C17.1006 21.08 20.1606 18 23.9806 18C27.7806 18 30.8606 21.08 30.8606 24.88C30.8606 28.6 27.9406 31.62 24.2406 31.74Z" fill="#191A23"/>
<path d="M17.7406 35.88C14.7206 37.9 14.7206 41.22 17.7406 43.22C21.1806 45.52 26.8206 45.52 30.2606 43.22C33.2806 41.2 33.2806 37.88 30.2606 35.88C26.8406 33.58 21.2006 33.58 17.7406 35.88Z" fill="#191A23"/>
</svg>
