<svg width="32" height="32" viewBox="0 0 32 32" fill="none" xmlns="http://www.w3.org/2000/svg">
<path d="M0 16C0 7.16344 7.16344 0 16 0C24.8366 0 32 7.16344 32 16C32 24.8366 24.8366 32 16 32C7.16344 32 0 24.8366 0 16Z" fill="#191A23"/>
<path d="M23.9782 21.3087C23.9782 21.5727 23.9195 21.844 23.7948 22.108C23.6702 22.372 23.5088 22.6214 23.2962 22.856C22.9368 23.252 22.5408 23.538 22.0935 23.7214C21.6535 23.9047 21.1768 24 20.6635 24C19.9155 24 19.1162 23.824 18.2728 23.4647C17.4295 23.1054 16.5862 22.6214 15.7502 22.0127C14.9068 21.3967 14.1075 20.7147 13.3448 19.9594C12.5895 19.1967 11.9075 18.3974 11.2988 17.5614C10.6975 16.7254 10.2135 15.8894 9.8615 15.0607C9.5095 14.2247 9.3335 13.4254 9.3335 12.6627C9.3335 12.164 9.4215 11.6874 9.5975 11.2474C9.7735 10.8 10.0522 10.3894 10.4408 10.0227C10.9102 9.56071 11.4235 9.33337 11.9662 9.33337C12.1715 9.33337 12.3768 9.37737 12.5602 9.46537C12.7508 9.55337 12.9195 9.68537 13.0515 9.87604L14.7528 12.274C14.8848 12.4574 14.9802 12.626 15.0462 12.7874C15.1122 12.9414 15.1488 13.0954 15.1488 13.2347C15.1488 13.4107 15.0975 13.5867 14.9948 13.7554C14.8995 13.924 14.7602 14.1 14.5842 14.276L14.0268 14.8554C13.9462 14.936 13.9095 15.0314 13.9095 15.1487C13.9095 15.2074 13.9168 15.2587 13.9315 15.3174C13.9535 15.376 13.9755 15.42 13.9902 15.464C14.1222 15.706 14.3495 16.0214 14.6722 16.4027C15.0022 16.784 15.3542 17.1727 15.7355 17.5614C16.1315 17.95 16.5128 18.3094 16.9015 18.6394C17.2828 18.962 17.5982 19.182 17.8475 19.314C17.8842 19.3287 17.9282 19.3507 17.9795 19.3727C18.0382 19.3947 18.0968 19.402 18.1628 19.402C18.2875 19.402 18.3828 19.358 18.4635 19.2774L19.0208 18.7274C19.2042 18.544 19.3802 18.4047 19.5488 18.3167C19.7175 18.214 19.8862 18.1627 20.0695 18.1627C20.2088 18.1627 20.3555 18.192 20.5168 18.258C20.6782 18.324 20.8468 18.4194 21.0302 18.544L23.4575 20.2674C23.6482 20.3994 23.7802 20.5534 23.8608 20.7367C23.9342 20.92 23.9782 21.1034 23.9782 21.3087Z" stroke="white" stroke-miterlimit="10"/>
</svg>
