<svg width="14" height="12" viewBox="0 0 14 12" fill="none" xmlns="http://www.w3.org/2000/svg">
<path d="M12.9563 2.20039C12.56 2.37108 12.1434 2.48995 11.7168 2.55404C11.9163 2.51981 12.2098 2.16046 12.3266 2.01501C12.5041 1.79561 12.6393 1.54515 12.7255 1.27634C12.7255 1.25638 12.7455 1.22786 12.7255 1.2136C12.7155 1.20811 12.7042 1.20523 12.6927 1.20523C12.6813 1.20523 12.67 1.20811 12.66 1.2136C12.1967 1.46469 11.7037 1.65634 11.1925 1.784C11.1747 1.78945 11.1557 1.78993 11.1377 1.78541C11.1196 1.78089 11.1031 1.77153 11.0899 1.75833C11.0501 1.71091 11.0073 1.66613 10.9617 1.62429C10.7532 1.43732 10.5167 1.2843 10.2607 1.17082C9.91524 1.02895 9.54206 0.967513 9.16938 0.991141C8.80776 1.014 8.4547 1.11108 8.13217 1.27634C7.81456 1.45058 7.53542 1.68728 7.31152 1.97223C7.07601 2.26552 6.90598 2.60588 6.81286 2.97043C6.73608 3.31719 6.72737 3.67559 6.78722 4.02567C6.78722 4.08557 6.78722 4.09412 6.73593 4.08557C4.70426 3.7861 3.03732 3.06455 1.67527 1.51591C1.61543 1.44746 1.58409 1.44746 1.53564 1.51591C0.942955 2.41714 1.23075 3.84314 1.97161 4.54759C2.07135 4.64171 2.17393 4.73297 2.28221 4.81853C1.94253 4.79439 1.61114 4.70226 1.30769 4.54759C1.2507 4.51051 1.21935 4.53048 1.2165 4.59893C1.20843 4.69382 1.20843 4.78923 1.2165 4.88413C1.27596 5.33891 1.45503 5.76972 1.73539 6.13252C2.01576 6.49531 2.38736 6.77707 2.81221 6.94898C2.91577 6.99338 3.02369 7.02683 3.1342 7.0488C2.81974 7.11076 2.49722 7.1204 2.17962 7.07732C2.11124 7.06306 2.08559 7.10013 2.11124 7.16573C2.53011 8.30653 3.43909 8.65448 4.10587 8.84841C4.19705 8.86267 4.28823 8.86267 4.39081 8.88549C4.39081 8.88549 4.39081 8.88549 4.37372 8.9026C4.1771 9.26195 3.3821 9.50437 3.01737 9.62986C2.35164 9.8692 1.64185 9.96068 0.937256 9.89795C0.826126 9.88084 0.800481 9.88369 0.771986 9.89795C0.743492 9.91221 0.771986 9.94358 0.80333 9.9721C0.945804 10.0662 1.08828 10.1489 1.23645 10.2288C1.67756 10.4696 2.1439 10.6609 2.62699 10.7992C5.12883 11.4894 7.9441 10.9817 9.82191 9.11365C11.2979 7.64772 11.8165 5.62565 11.8165 3.60072C11.8165 3.52372 11.9106 3.47809 11.9647 3.43816C12.3381 3.14694 12.6674 2.80302 12.9421 2.41714C12.9897 2.35962 13.014 2.28639 13.0105 2.2118V2.2118C13.0105 2.16902 13.0105 2.17757 12.9563 2.20039Z" fill="white"/>
</svg>
